<?xml version="1.0" encoding="UTF-8"?>
<svg id="Layer_1" xmlns="http://www.w3.org/2000/svg" version="1.1" viewBox="0 0 46.6 46.6">
  <!-- Generator: Adobe Illustrator 29.6.1, SVG Export Plug-In . SVG Version: 2.1.1 Build 9)  -->
  <defs>
    <style>
      .st0 {
        fill: #231f20;
      }

      .st1 {
        fill: #fff;
      }
    </style>
  </defs>
  <path class="st0" d="M28.8,0h-11C8,0,0,8,0,17.8v11c0,9.8,8,17.8,17.8,17.8h11c9.8,0,17.8-8,17.8-17.8v-11C46.6,8,38.6,0,28.8,0ZM31.3,31.7h-11.9c-1.3.3-1.5,2.5-2,3.5h-9.3l2.7-8.3c.7-2.1,3.4-4.3,5.6-4.3h18l-3.1,9.1h0ZM38.4,11.5c0,.2-.1.4-.2.6-1,2.8-2,5.6-3.1,8.3H13.1c1.3-3.3,1.7-7.1,5.5-8.6.2-.1,1.2-.4,1.4-.4h18.2s.2-.3.2,0h0Z"/>
  <path class="st1" d="M31.3,31.7h0s-11.9,0-11.9,0c-1.3.3-1.5,2.5-2,3.5h-9.3l2.7-8.3c.7-2.1,3.4-4.3,5.6-4.3h18l-3.1,9.1Z"/>
  <path class="st1" d="M38.4,11.5h0c0,.2-.1.5-.2.6-1,2.8-2,5.6-3.1,8.3H13.1c1.3-3.3,1.7-7.1,5.5-8.6.2-.1,1.2-.4,1.4-.4h18.2s.2-.3.2,0Z"/>
</svg>